<svg xmlns="http://www.w3.org/2000/svg" viewBox="0 0 64.66 62.33"><g id="Layer_2" data-name="Layer 2"><g id="Layer_1-2" data-name="Layer 1"><g id="cart"><path d="M4.35,7.56c2.72-.68,4.43-1.41,5.84,1.14s2.07,6.17,3,8.93l5.7,17c1.43,4.25,8.19,2.43,6.75-1.86-3-8.92-5.72-18-9-26.81C14.2-.61,8.63-.72,2.49.81-1.87,1.91,0,8.66,4.35,7.56Z"/><path d="M17.46,14.07A370,370,0,0,0,61.1,16.68l-3.38-4.43c-1.39,3.53-1.34,7.23-2.28,10.86C54,28.7,49.57,28.63,44.66,29c-4.47.29-8.93.68-13.35,1.41-3.6.58-8.49,1-11.45,3.37C14,38.39,20,44.5,25.12,45.81c9.18,2.34,19.18,1.67,28.54,1.29,4.49-.18,4.51-7.18,0-7-8.25.33-16.7.8-24.86-.69a32.42,32.42,0,0,1-3.25-.71c-1.61.58-1.38.55.67-.1,1.74-.38,3.44-.86,5.2-1.19A104.41,104.41,0,0,1,43.77,36c5.62-.38,11.8-.34,15.69-5.1s2.87-11.36,5-16.8c.85-2.16-1.3-4.43-3.37-4.43A370,370,0,0,1,17.46,7.07c-4.46-.54-4.42,6.47,0,7Z"/><path d="M20.39,48.76c-3.8-.45-6.86,3.41-6.32,7s4.22,6.18,7.82,6.36,7.62-2.44,7.52-6.48c-.12-4.48-4.57-6.26-8.35-6.64-3.36-.34-3.34,4.92,0,5.25.79.08,2.82.29,3,1.37S22.65,57,21.89,56.89a3.23,3.23,0,0,1-2.4-1.3c-.47-.86-.14-1.7.9-1.58A2.65,2.65,0,0,0,23,51.39a2.7,2.7,0,0,0-2.63-2.63Z"/><path d="M52.07,48.94c-3.8-.45-6.87,3.41-6.32,7s4.22,6.18,7.82,6.36,7.62-2.44,7.52-6.48c-.12-4.48-4.57-6.26-8.35-6.64-3.36-.33-3.34,4.92,0,5.25.78.08,2.82.29,3,1.37s-1.45,1.33-2.21,1.25a3.2,3.2,0,0,1-2.4-1.3c-.47-.85-.14-1.7.9-1.58a2.64,2.64,0,0,0,2.63-2.62,2.7,2.7,0,0,0-2.63-2.63Z"/></g></g></g></svg>