<svg xmlns="http://www.w3.org/2000/svg" viewBox="0 0 186.55 116.25"><defs><style>.cls-1{fill:#231f20;}</style></defs><g id="Layer_2" data-name="Layer 2"><g id="Layer_1-2" data-name="Layer 1"><g id="logo"><path class="cls-1" d="M113.25,16.41q-.14,16,.08,31.94c.06,4.5,7.06,4.52,7,0q-.21-16-.08-31.94c0-4.5-7-4.51-7,0Z"/><path class="cls-1" d="M99.76,38.11c3.15,3.62,6.43,7.1,9.92,10.39,1.88,1.76,4.4,5,7.23,5S122.22,50,124,48.29c3.42-3.36,6.8-6.76,10.09-10.24,3.1-3.27-1.85-8.23-5-4.95q-3.39,3.59-6.89,7.08c-2.14,2.14-4.49,5.31-7.1,6.82h3.53c-2.71-1.38-5.15-4.46-7.26-6.59-2.33-2.33-4.55-4.76-6.71-7.25-3-3.4-7.9,1.57-4.95,5Z"/><path class="cls-1" d="M75.87,1.84C71.15,10.16,71.44,22.76,72.6,32A48.84,48.84,0,0,0,86.19,59.23c14.64,14.15,37.64,22,57.3,14.94l-4-5.14c-3.38,6.43-8,13.63-14.73,16.86-4.06,2-.51,8,3.53,6,7.74-3.71,13.34-11.94,17.24-19.36,1.32-2.5-.9-6.23-4-5.15-17.07,6.1-36.15-.38-49.35-12.08A42.8,42.8,0,0,1,79.76,32.83a60,60,0,0,1-.43-13.72c.24-4.67.23-9.57,2.59-13.74,2.22-3.92-3.82-7.46-6-3.53Z"/><path class="cls-1" d="M61.16,85.89C54.52,82,50.22,71.34,48.06,64.39c-2.52-8.09-3.84-17.25-1.63-25.56,3.79-14.27,17.64-28.46,32.1-32C82.91,5.8,81.06-.95,76.67.11,59.5,4.27,43.06,21.32,39.3,38.53c-2.15,9.87-.54,20.75,2.84,30.17,2.94,8.2,7.66,18.65,15.49,23.23,3.89,2.28,7.42-3.77,3.53-6Z"/><path class="cls-1" d="M3.38,93.93q89.9-.21,179.79.08c4.51,0,4.51-7,0-7q-89.89-.3-179.79-.08c-4.5,0-4.51,7,0,7Z"/><path class="cls-1" d="M3.38,116.17q89.9-.21,179.79.08c4.51,0,4.51-7,0-7Q93.28,109,3.38,109.17c-4.5,0-4.51,7,0,7Z"/><path class="cls-1" d="M5.63,105.44A18.16,18.16,0,0,1,9,98.29l-1.71-.71A6.92,6.92,0,0,0,9.66,103a1,1,0,0,0,1.41,0,48.59,48.59,0,0,1,6-4.16L15.6,97.71A33.7,33.7,0,0,0,14.2,105c-.11,1.28,1.89,1.27,2,0a31.39,31.39,0,0,1,1.33-6.79,1,1,0,0,0-1.47-1.13,51.7,51.7,0,0,0-6.4,4.48h1.41a5,5,0,0,1-1.76-4c0-.81-1.16-1.4-1.71-.71a20.56,20.56,0,0,0-3.9,8c-.29,1.25,1.64,1.79,1.93.53Z"/><path class="cls-1" d="M27.29,100.72a3.7,3.7,0,0,0-1.12-2.12,5.7,5.7,0,0,0-1-.67,2.68,2.68,0,0,0-1.53-.2,5.33,5.33,0,0,0-1.2.25,3,3,0,0,0-.63.39c.1-.08-.16.1-.14.09s-.24.16-.35.25a6,6,0,0,0-1.81,1.89,5.53,5.53,0,0,0-.69,2.44,2.39,2.39,0,0,0,1,2.42,8.43,8.43,0,0,0,1.27.47c.39.14.79.28,1.19.38a4.07,4.07,0,0,0,2.49,0,3.62,3.62,0,0,0,2-2.27,6.28,6.28,0,0,0,.5-3,1,1,0,0,0-1-1c-.49,0-1.07.44-1,1a4.08,4.08,0,0,1-.24,2c0,.15-.1.3-.16.45a1.34,1.34,0,0,1-.07.18l0,0c-.07.14-.13.27-.21.4l-.07.1-.14.15c-.12.12.1-.06,0,0l-.17.1c-.14.08.2,0-.07,0l-.19,0s-.19,0,0,0H23.4a8.72,8.72,0,0,1-1.81-.52l-.54-.18-.21-.07c.16.06,0,0,0,0a.41.41,0,0,0,.09.1c.07.09,0,.06,0,0s0-.29,0-.16,0-.14,0-.17a3.38,3.38,0,0,1,0-.45c0-.07,0-.14,0-.2s-.06.22,0-.09c0-.13.06-.26.1-.39l.06-.2s.11-.29.05-.14a4,4,0,0,1,.39-.7c.18-.26,0,.06.06-.08l.14-.15a4.89,4.89,0,0,1,.4-.39,5.73,5.73,0,0,1,.63-.46c.15-.11.3-.21.45-.33a.79.79,0,0,0,.15-.12c-.27.13-.32.17-.15.11l.08,0a4,4,0,0,1,1-.12s.21,0,.06,0q.15,0,0,0c-.07,0-.06,0,0,0a4.5,4.5,0,0,0,.43.27c-.05,0-.1-.1,0,0s.13.13.2.2-.09-.13,0,0l.13.21s.11.22,0,.07a2,2,0,0,1,.08.22,4.15,4.15,0,0,1,.11.48,1,1,0,0,0,1.23.69A1,1,0,0,0,27.29,100.72Z"/><path class="cls-1" d="M38.22,100.8a3,3,0,0,0-.69-1.17,3.75,3.75,0,0,0-.61-.51A.86.86,0,0,0,36.7,99c.19.22.25.27.18.16L36.82,99a3,3,0,0,0-2.8-.9,3.16,3.16,0,0,0-1.33.26,4.54,4.54,0,0,0-1.07.82,5.63,5.63,0,0,0-1.26,2.39,6.19,6.19,0,0,0-.25,2.63,2.53,2.53,0,0,0,1.83,1.91c1.59.54,3.53.86,4.92-.3a4.08,4.08,0,0,0,1.22-2.23,6.41,6.41,0,0,0,.14-2.82,1,1,0,0,0-1.23-.7,1,1,0,0,0-.7,1.23c.08.31,0-.09,0,.1v.21a3.87,3.87,0,0,1,0,.48c0,.13,0,.26,0,.39s0,.22,0,.09a1.36,1.36,0,0,1,0,.18,6.11,6.11,0,0,1-.17.74,1.8,1.8,0,0,0-.08.21c0,.15.11-.2,0,0l-.21.37h0l-.11.12-.15.15c-.11.09.13-.07,0,0a1.43,1.43,0,0,0-.21.12h0l-.18,0s-.32.07-.11,0a3.79,3.79,0,0,1-.89,0c.17,0-.17,0-.23-.05s-.37-.08-.55-.12-.54-.14-.8-.23l-.18-.07c.17.08,0,0,0,0s-.21-.13-.06,0l-.06-.06c.06.08.06.07,0,0s0-.17,0,0a1.21,1.21,0,0,1,0-.18c-.05-.19,0,0,0,0a1.77,1.77,0,0,1,0-.23,3,3,0,0,1,0-.43s0,.18,0,0a3.06,3.06,0,0,1,0-.32,9.62,9.62,0,0,1,.24-1,2.81,2.81,0,0,1,.33-.75,2,2,0,0,1,.46-.58l.15-.14c-.12.1,0,0,.08,0l.17-.1.13-.08c-.27,0-.34.05-.21.05a7.12,7.12,0,0,0,1.12-.08,1.48,1.48,0,0,1,.41,0l.19.06c-.08,0-.08,0,0,0s.06,0,0,0,0-.07,0,0a2.78,2.78,0,0,0,.26.32c.15.14.33.23.48.36l.09.08a2,2,0,0,1,.16.16c-.07-.09.05.07.06.09a.75.75,0,0,1,.07.12q0-.14,0,0a1,1,0,0,0,1.93-.53Z"/><path class="cls-1" d="M47.35,97.31A22.58,22.58,0,0,1,47,101c-.16.89-.29,2.23-1,2.73a.52.52,0,0,1-.36.14c-.31,0,.1,0,0,.07s-.17-.75-.18-.78c0-.28-.09-.56-.13-.84a20.72,20.72,0,0,1-.13-3.86,1,1,0,0,0-1.86-.5,25.77,25.77,0,0,0-3.06,6.76,1,1,0,0,0,1.93.53A23.75,23.75,0,0,1,45.07,99l-1.86-.51a22.69,22.69,0,0,0,.27,4.87,3.35,3.35,0,0,0,.78,2,2.18,2.18,0,0,0,2.33.32c1.46-.61,1.94-2.13,2.23-3.56a26.4,26.4,0,0,0,.53-4.78,1,1,0,0,0-2,0Z"/><path class="cls-1" d="M57.91,96.62a7.7,7.7,0,0,0-4,.41c-1.25.5-2.83,1.41-2.57,3,.23,1.39,1.72,1.71,2.84,2.09.24.09.48.17.71.28s.46.31.7.41.08.21.13-.09.07-.17,0-.12a6.91,6.91,0,0,0-.82.55,13.39,13.39,0,0,1-3.93,1.67,1,1,0,0,0,.53,1.93,15.36,15.36,0,0,0,3.61-1.4,13.48,13.48,0,0,0,1.62-1,1.8,1.8,0,0,0,1-1.91c-.32-1.32-2-1.9-3.12-2.28l-.81-.26c-.14-.05-.34-.18-.41-.21s0,0,0,0,0,0,0,0c-.14,0,.07-.1,0,0s0,0,0,.06a1.66,1.66,0,0,1,.38-.36,5.59,5.59,0,0,1,3.72-.8,1.05,1.05,0,0,0,1.23-.7,1,1,0,0,0-.7-1.23Z"/><path class="cls-1" d="M65.59,96.5a12.23,12.23,0,0,0-3.72.16c-.66.14-1.36.24-1.65.92s-.48,1.15-.69,1.74a27.74,27.74,0,0,0-1.48,6.92c-.08,1,1.47,1.4,1.86.5,0,0,.11-.2.1-.19s-.06,0,0,0a1.34,1.34,0,0,1,.36-.18c.48-.18,1-.31,1.46-.45a25.85,25.85,0,0,1,3-.6,1,1,0,1,0-.53-1.93,23.31,23.31,0,0,0-3.49.74c-1,.28-2.22.59-2.66,1.61l1.86.51a25.25,25.25,0,0,1,2-7.87l-.6.46a10.58,10.58,0,0,1,4.15-.33,1,1,0,0,0,1-1,1,1,0,0,0-1-1Z"/><path class="cls-1" d="M60.71,102.65a13,13,0,0,0,4.08-.34,1,1,0,0,0,.7-1.23,1,1,0,0,0-1.23-.7c-.31.08-.61.14-.92.19l-.22,0c-.21,0,.21,0-.06,0l-.47,0a11.81,11.81,0,0,1-1.88,0,1,1,0,0,0,0,2Z"/><path class="cls-1" d="M68.65,98.7A46.06,46.06,0,0,0,76,98.32a1,1,0,0,0,1-1,1,1,0,0,0-1-1,46.06,46.06,0,0,1-7.33.38,1,1,0,0,0-1,1,1,1,0,0,0,1,1Z"/><path class="cls-1" d="M71.58,97.56c-.52,1.42-1.55,2.59-2.11,4a4.38,4.38,0,0,0,.33,4.21,1,1,0,0,0,1.37.36,1,1,0,0,0,.36-1.37,1.89,1.89,0,0,1-.44-1.39,4,4,0,0,1,.42-1.51c.62-1.29,1.5-2.41,2-3.76a1,1,0,0,0-1.93-.54Z"/><path class="cls-1" d="M77.75,102.36a1,1,0,0,0,0-2,1,1,0,0,0,0,2Z"/><path class="cls-1" d="M88.9,96.17a13.76,13.76,0,0,0-3.45.23,4.52,4.52,0,0,0-3,1.92c-.73,1.41.64,2.64,1.7,3.38a9.69,9.69,0,0,0,1.55.85l.29.15c.16.08,0,.07,0,0l0-.2a.26.26,0,0,1,0-.28c0-.11.08-.08-.05,0a2.43,2.43,0,0,0-.32.24,25.83,25.83,0,0,1-3.85,2.31,1,1,0,0,0-.36,1.37,1,1,0,0,0,1.37.36A26,26,0,0,0,87,104c.73-.55,1.32-1.34.78-2.26A4,4,0,0,0,86,100.47a5.16,5.16,0,0,1-1.62-1.23.64.64,0,0,1-.1-.13c-.1-.2-.11-.15,0,.15,0,0,.08-.1.15-.16a2.8,2.8,0,0,1,.73-.48,8.23,8.23,0,0,1,3.8-.45,1,1,0,0,0,0-2Z"/><path class="cls-1" d="M91.82,96.85a8.1,8.1,0,0,1-.6,2.15c-.25.72-.48,1.43-.68,2.16a15.84,15.84,0,0,0-.65,4.63,1,1,0,0,0,2,0,14.45,14.45,0,0,1,.67-4.42,20.53,20.53,0,0,0,1.26-4.52,1,1,0,0,0-2,0Z"/><path class="cls-1" d="M97.24,97.1c-2.1,1.17-3.62,3.09-5.64,4.22a1,1,0,0,0,.77,1.83c.12,0,.14,0,0,0h.06l.2.07c-.07,0-.05,0,.06,0a4.69,4.69,0,0,1,.61.52,7.6,7.6,0,0,0,1.55,1.15,6.94,6.94,0,0,0,3.71.81,1,1,0,0,0,1-1,1,1,0,0,0-1-1,6.61,6.61,0,0,1-.89,0,3.76,3.76,0,0,1-.76-.14l-.43-.13-.2-.07-.07,0a5.9,5.9,0,0,1-.82-.45c-.46-.3-.9-.81-1.41-1.19a2.58,2.58,0,0,0-2.19-.5l.77,1.83c2.1-1.18,3.61-3.09,5.64-4.23a1,1,0,1,0-1-1.72Z"/><path class="cls-1" d="M101.94,105.63A11.44,11.44,0,0,1,106.47,98l-1.5-.86a42.51,42.51,0,0,0,1.19,4.35,15.35,15.35,0,0,1,.37,4.28,1,1,0,0,0,1,1,1,1,0,0,0,1-1,17.42,17.42,0,0,0-.38-4.5,19.09,19.09,0,0,0-.59-2.09,10.35,10.35,0,0,1-.59-2,1.06,1.06,0,0,0-.5-.87,1,1,0,0,0-1,0,13.68,13.68,0,0,0-5.52,9.41,1,1,0,0,0,1,1,1,1,0,0,0,1-1Z"/><path class="cls-1" d="M101.89,104h5a1,1,0,0,0,0-2h-5a1,1,0,0,0,0,2Z"/><path class="cls-1" d="M110.3,99q4.22-.23,8.4-.71a1,1,0,0,0,1-1,1,1,0,0,0-1-1q-4.19.48-8.4.71a1,1,0,0,0-1,1,1,1,0,0,0,1,1Z"/><path class="cls-1" d="M114.17,98.41a14.1,14.1,0,0,0-1.7,3.7,10.75,10.75,0,0,0-.42,2.09,4.48,4.48,0,0,0,.44,2.25,1,1,0,0,0,1.37.36,1,1,0,0,0,.36-1.37,4.38,4.38,0,0,1,.25-3,11.74,11.74,0,0,1,1.43-3,1,1,0,0,0-1.73-1Z"/><path class="cls-1" d="M125.73,96.67a45.9,45.9,0,0,0-5.37.43,1,1,0,0,0-.74,1,8.24,8.24,0,0,1-.6,3.3,27.63,27.63,0,0,0-1.1,3.41,1,1,0,0,0,.58,1.18,1,1,0,0,0,1.25-.41s-.15.21-.16.15a.69.69,0,0,1,.18,0c-.2,0,.11,0,.13,0h.24l1.51.12,3.08.24a1,1,0,0,0,1-1,1,1,0,0,0-1-1l-3.66-.29c-1.15-.09-2.27-.24-3,.79l1.83.77c.51-2.44,1.94-4.67,1.77-7.24l-.73,1a41.15,41.15,0,0,1,4.84-.36,1,1,0,0,0,1-1,1,1,0,0,0-1-1Z"/><path class="cls-1" d="M120.53,102.36h3.75a1,1,0,0,0,0-2h-3.75a1,1,0,0,0,0,2Z"/><path class="cls-1" d="M128,99a10.79,10.79,0,0,1,2.56-.7,10.64,10.64,0,0,1,1.26-.07,3,3,0,0,1,1,.09c.07,0,.19.07.15.07s0-.1-.06-.09-.1.09-.14.12a2.44,2.44,0,0,1-.43.21c-.9.34-1.82.66-2.72,1l.53,1.93a3.81,3.81,0,0,1,2.91.06,3.91,3.91,0,0,1,1.22.86c.08.08.34.54.42.56-.09,0,.05-.31,0-.33a.73.73,0,0,0-.14.16l-.4.39a7.15,7.15,0,0,1-3.13,1.69,7.63,7.63,0,0,1-.83.17l-.35,0h-.08s-.05-.06,0,0,.21.39.2.39A4.1,4.1,0,0,0,130,105c.1-.37.19-.75.27-1.13a17.91,17.91,0,0,0,.25-5.32,1,1,0,0,0-1-1,1,1,0,0,0-1,1,16.22,16.22,0,0,1-.38,5.68,4.86,4.86,0,0,0-.29,1.35,1.54,1.54,0,0,0,.79,1.28,3.53,3.53,0,0,0,2.42.11,9.3,9.3,0,0,0,4.48-2.35c.79-.76,1.42-1.66.76-2.74a5.35,5.35,0,0,0-1.64-1.64,5.75,5.75,0,0,0-5.08-.62,1,1,0,0,0,.53,1.93l1.85-.68a9.81,9.81,0,0,0,1.72-.69,2.06,2.06,0,0,0,.66-3.21c-.78-.8-2.11-.78-3.14-.73a12,12,0,0,0-3.78.83,1,1,0,0,0-.7,1.23A1,1,0,0,0,128,99Z"/><path class="cls-1" d="M143.07,97a5.29,5.29,0,0,0-4.15,2.68,7.71,7.71,0,0,0-.88,2.46,5.2,5.2,0,0,0,0,2.6,2.41,2.41,0,0,0,2.29,1.46A6.36,6.36,0,0,0,143,106a6.1,6.1,0,0,0,2.17-1.52,4,4,0,0,0,1.22-2.15,5.6,5.6,0,0,0-.68-3.12,3.28,3.28,0,0,0-2.26-1.89,1,1,0,0,0-1.23.7,1,1,0,0,0,.7,1.23l.22,0s.17.07.07,0a.78.78,0,0,1,.26.16,2,2,0,0,1,.46.63,5.14,5.14,0,0,1,.51,1.61,1.13,1.13,0,0,1-.11.61c0-.12,0,0,0,0l-.11.19a1.73,1.73,0,0,1-.23.29,5.57,5.57,0,0,1-1.28,1.1,3,3,0,0,1-1.65.27l-.51,0h-.15s-.24,0-.13,0-.1,0-.12,0l-.15-.05c.15.06,0,0,0,0a.12.12,0,0,1,0,0s0,0,0,0,0,0,0,0,0-.23,0-.13a3.09,3.09,0,0,1,0-.31,5.87,5.87,0,0,1,.08-.88,6.47,6.47,0,0,1,.51-1.72,5.23,5.23,0,0,1,.49-.79,3.92,3.92,0,0,1,.34-.37l.16-.15s.17-.14.1-.09a3.84,3.84,0,0,1,.73-.43,3.15,3.15,0,0,1,.78-.19,1,1,0,0,0,0-2Z"/><path class="cls-1" d="M149.78,105.56a17.05,17.05,0,0,1,4.75-7.49l-1.67-.44c.29,1.43,1.1,2.69,1.53,4.08a12.56,12.56,0,0,1,.51,4.31,1,1,0,1,0,2,0,14.29,14.29,0,0,0-.54-4.69c-.42-1.45-1.27-2.75-1.57-4.23a1,1,0,0,0-1.68-.44,19.05,19.05,0,0,0-5.26,8.37c-.38,1.23,1.55,1.76,1.93.53Z"/><path class="cls-1" d="M149.88,104.4a36.87,36.87,0,0,0,5-.08,1,1,0,0,0,1-1,1,1,0,0,0-1-1,36.87,36.87,0,0,1-5,.08,1,1,0,0,0,0,2Z"/><path class="cls-1" d="M160.25,105.87a12.25,12.25,0,0,1,.55-3.61,10.44,10.44,0,0,1,1.52-3.15c.32-.4.67-.39,1.16-.39a3.51,3.51,0,0,1,.6,0,2,2,0,0,1,.32.1h0c.07,0,.07.16.06.27a2.07,2.07,0,0,1-.28.67,3.14,3.14,0,0,1-.92,1.09,3,3,0,0,1-1.66.3c-.74,0-1.81-.1-2.19.69a1,1,0,0,0,.36,1.37c-.1-.07.18.23.11.13a2.6,2.6,0,0,1,.23.4c.12.25.22.51.36.75a4.51,4.51,0,0,0,1.31,1.44,6.76,6.76,0,0,0,3.6,1.09,1,1,0,0,0,1-1,1,1,0,0,0-1-1,4.54,4.54,0,0,1-2.66-.88,3.33,3.33,0,0,1-.78-1.19,3.5,3.5,0,0,0-1.16-1.47l.35,1.37,0-.08-.36.36c-.26.15-.2,0-.05,0l.28,0h.56a8.47,8.47,0,0,0,1.23-.08,3.7,3.7,0,0,0,2-1c1-1,2.11-2.8,1.31-4.2a2.44,2.44,0,0,0-1.81-1.14,5.18,5.18,0,0,0-2.25.09,3.43,3.43,0,0,0-1.8,1.64,15,15,0,0,0-1.06,2.12,14,14,0,0,0-1,5.24,1,1,0,0,0,2,0Z"/><path class="cls-1" d="M168.5,96.93a72.73,72.73,0,0,1-.25,8.48,1,1,0,0,0,2,0,72.73,72.73,0,0,0,.25-8.48c0-1.28-2-1.29-2,0Z"/><path class="cls-1" d="M169.8,98.36a7.29,7.29,0,0,1,2.5,1c.27.18.76.44.88.76a1.77,1.77,0,0,1,0,.52c0,.23,0,.47,0,.7a2.05,2.05,0,0,1-.28,1.06,2.86,2.86,0,0,1-.85.77,6.53,6.53,0,0,1-2.59,1,1,1,0,0,0-.69,1.23,1,1,0,0,0,1.23.69,7.72,7.72,0,0,0,3.33-1.39,3.78,3.78,0,0,0,1.85-3.37,5.1,5.1,0,0,0-.14-1.87,3.34,3.34,0,0,0-1.38-1.57,8.73,8.73,0,0,0-3.35-1.49,1,1,0,0,0-1.23.7,1,1,0,0,0,.7,1.23Z"/><path class="cls-1" d="M184.56,96.26a9.78,9.78,0,0,0-3.84.33,10.41,10.41,0,0,0-1.84.74,3.36,3.36,0,0,0-1.56,1.24,1.24,1.24,0,0,0,.11,1.31,2.62,2.62,0,0,0,1,.68l2,1a5.81,5.81,0,0,0,.89.47l.05,0a.24.24,0,0,1-.14-.2c-.13-.13.05-.08,0,0l-.08.13a3.6,3.6,0,0,1-.92,1,10.19,10.19,0,0,1-3.41,1.53c-1.23.37-.7,2.31.53,1.93,2-.6,4-1.39,5.29-3.11.75-1,.85-2.39-.35-3.11-.54-.33-1.13-.6-1.7-.9l-.87-.46a3.63,3.63,0,0,1-.71-.37l.26.44v.06l-.14.51c.1-.22-.22.09.06-.07l.35-.22c.22-.13.45-.25.68-.36a8,8,0,0,1,4.42-.67,1,1,0,0,0,1-1,1,1,0,0,0-1-1Z"/></g></g></g></svg>