<svg xmlns="http://www.w3.org/2000/svg" viewBox="0 0 53.29 35.84"><defs><style>.cls-1{fill:#231f20;}</style></defs><g id="Layer_2" data-name="Layer 2"><g id="Layer_1-2" data-name="Layer 1"><g id="menu"><path class="cls-1" d="M3.38,8.68A311,311,0,0,0,49.15,7c4.43-.48,4.48-7.49,0-7A311,311,0,0,1,3.38,1.68c-4.51-.17-4.5,6.83,0,7Z"/><path class="cls-1" d="M4.63,23.14a141.68,141.68,0,0,0,44.15-4.61c4.34-1.16,2.5-7.91-1.86-6.75A135.24,135.24,0,0,1,4.63,16.14c-4.51-.24-4.49,6.77,0,7Z"/><path class="cls-1" d="M4.76,35.82q22.62.18,45.17-1.58c4.46-.34,4.5-7.35,0-7Q27.39,29,4.76,28.82c-4.51,0-4.51,7,0,7Z"/></g></g></g></svg>